<mxfile host="app.diagrams.net" agent="Mozilla/5.0 (Windows NT 10.0; Win64; x64; rv:136.0) Gecko/20100101 Firefox/136.0" version="26.1.1">
  <diagram id="C5RBs43oDa-KdzZeNtuy" name="Page-1">
    <mxGraphModel dx="2100" dy="1116" grid="1" gridSize="10" guides="1" tooltips="1" connect="1" arrows="1" fold="1" page="1" pageScale="1" pageWidth="827" pageHeight="1169" math="0" shadow="0">
      <root>
        <mxCell id="WIyWlLk6GJQsqaUBKTNV-0" />
        <mxCell id="WIyWlLk6GJQsqaUBKTNV-1" parent="WIyWlLk6GJQsqaUBKTNV-0" />
        <mxCell id="cyc-n1ejTyVXK12s6wC7-37" style="edgeStyle=orthogonalEdgeStyle;rounded=0;orthogonalLoop=1;jettySize=auto;html=1;exitX=0.5;exitY=1;exitDx=0;exitDy=0;entryX=0.5;entryY=0;entryDx=0;entryDy=0;" edge="1" parent="WIyWlLk6GJQsqaUBKTNV-1" source="cyc-n1ejTyVXK12s6wC7-0" target="cyc-n1ejTyVXK12s6wC7-3">
          <mxGeometry relative="1" as="geometry" />
        </mxCell>
        <mxCell id="cyc-n1ejTyVXK12s6wC7-0" value="&lt;div&gt;RP FX&lt;/div&gt;" style="ellipse;whiteSpace=wrap;html=1;" vertex="1" parent="WIyWlLk6GJQsqaUBKTNV-1">
          <mxGeometry x="100" y="70" width="120" height="80" as="geometry" />
        </mxCell>
        <mxCell id="cyc-n1ejTyVXK12s6wC7-38" style="edgeStyle=orthogonalEdgeStyle;rounded=0;orthogonalLoop=1;jettySize=auto;html=1;exitX=0.5;exitY=1;exitDx=0;exitDy=0;entryX=0.5;entryY=0;entryDx=0;entryDy=0;" edge="1" parent="WIyWlLk6GJQsqaUBKTNV-1" source="cyc-n1ejTyVXK12s6wC7-3" target="cyc-n1ejTyVXK12s6wC7-4">
          <mxGeometry relative="1" as="geometry" />
        </mxCell>
        <mxCell id="cyc-n1ejTyVXK12s6wC7-3" value="&lt;div&gt;Driver Selection&lt;/div&gt;&lt;div&gt;&lt;br&gt;&lt;/div&gt;" style="shape=parallelogram;perimeter=parallelogramPerimeter;whiteSpace=wrap;html=1;fixedSize=1;" vertex="1" parent="WIyWlLk6GJQsqaUBKTNV-1">
          <mxGeometry x="100" y="220" width="120" height="60" as="geometry" />
        </mxCell>
        <mxCell id="cyc-n1ejTyVXK12s6wC7-39" style="edgeStyle=orthogonalEdgeStyle;rounded=0;orthogonalLoop=1;jettySize=auto;html=1;exitX=0.5;exitY=1;exitDx=0;exitDy=0;entryX=0.5;entryY=0;entryDx=0;entryDy=0;" edge="1" parent="WIyWlLk6GJQsqaUBKTNV-1" source="cyc-n1ejTyVXK12s6wC7-4" target="cyc-n1ejTyVXK12s6wC7-5">
          <mxGeometry relative="1" as="geometry" />
        </mxCell>
        <mxCell id="cyc-n1ejTyVXK12s6wC7-4" value="Read CSV files" style="rounded=0;whiteSpace=wrap;html=1;" vertex="1" parent="WIyWlLk6GJQsqaUBKTNV-1">
          <mxGeometry x="100" y="330" width="120" height="60" as="geometry" />
        </mxCell>
        <mxCell id="cyc-n1ejTyVXK12s6wC7-40" style="edgeStyle=orthogonalEdgeStyle;rounded=0;orthogonalLoop=1;jettySize=auto;html=1;exitX=0.5;exitY=1;exitDx=0;exitDy=0;entryX=0.5;entryY=0;entryDx=0;entryDy=0;" edge="1" parent="WIyWlLk6GJQsqaUBKTNV-1" source="cyc-n1ejTyVXK12s6wC7-5" target="cyc-n1ejTyVXK12s6wC7-6">
          <mxGeometry relative="1" as="geometry" />
        </mxCell>
        <mxCell id="cyc-n1ejTyVXK12s6wC7-5" value="filter the csv files to contain info related to selected driver" style="rounded=0;whiteSpace=wrap;html=1;" vertex="1" parent="WIyWlLk6GJQsqaUBKTNV-1">
          <mxGeometry x="100" y="430" width="120" height="60" as="geometry" />
        </mxCell>
        <mxCell id="cyc-n1ejTyVXK12s6wC7-41" style="edgeStyle=orthogonalEdgeStyle;rounded=0;orthogonalLoop=1;jettySize=auto;html=1;exitX=0.5;exitY=1;exitDx=0;exitDy=0;entryX=0.5;entryY=0;entryDx=0;entryDy=0;" edge="1" parent="WIyWlLk6GJQsqaUBKTNV-1" source="cyc-n1ejTyVXK12s6wC7-6" target="cyc-n1ejTyVXK12s6wC7-7">
          <mxGeometry relative="1" as="geometry" />
        </mxCell>
        <mxCell id="cyc-n1ejTyVXK12s6wC7-6" value="Calculate stats such as number of wins etc" style="rounded=0;whiteSpace=wrap;html=1;" vertex="1" parent="WIyWlLk6GJQsqaUBKTNV-1">
          <mxGeometry x="100" y="525" width="120" height="60" as="geometry" />
        </mxCell>
        <mxCell id="cyc-n1ejTyVXK12s6wC7-42" style="edgeStyle=orthogonalEdgeStyle;rounded=0;orthogonalLoop=1;jettySize=auto;html=1;exitX=0.5;exitY=1;exitDx=0;exitDy=0;entryX=0.5;entryY=0;entryDx=0;entryDy=0;" edge="1" parent="WIyWlLk6GJQsqaUBKTNV-1" source="cyc-n1ejTyVXK12s6wC7-7" target="cyc-n1ejTyVXK12s6wC7-8">
          <mxGeometry relative="1" as="geometry" />
        </mxCell>
        <mxCell id="cyc-n1ejTyVXK12s6wC7-7" value="Store and round these numbers in variables" style="rounded=0;whiteSpace=wrap;html=1;" vertex="1" parent="WIyWlLk6GJQsqaUBKTNV-1">
          <mxGeometry x="100" y="630" width="120" height="60" as="geometry" />
        </mxCell>
        <mxCell id="cyc-n1ejTyVXK12s6wC7-43" style="edgeStyle=orthogonalEdgeStyle;rounded=0;orthogonalLoop=1;jettySize=auto;html=1;exitX=0.5;exitY=1;exitDx=0;exitDy=0;entryX=0.5;entryY=0;entryDx=0;entryDy=0;" edge="1" parent="WIyWlLk6GJQsqaUBKTNV-1" source="cyc-n1ejTyVXK12s6wC7-8" target="cyc-n1ejTyVXK12s6wC7-9">
          <mxGeometry relative="1" as="geometry" />
        </mxCell>
        <mxCell id="cyc-n1ejTyVXK12s6wC7-8" value="Use the RP formula to calculate the drivers score" style="rounded=0;whiteSpace=wrap;html=1;" vertex="1" parent="WIyWlLk6GJQsqaUBKTNV-1">
          <mxGeometry x="100" y="720" width="120" height="60" as="geometry" />
        </mxCell>
        <mxCell id="cyc-n1ejTyVXK12s6wC7-23" style="edgeStyle=orthogonalEdgeStyle;rounded=0;orthogonalLoop=1;jettySize=auto;html=1;exitX=1;exitY=0.5;exitDx=0;exitDy=0;entryX=0.5;entryY=0;entryDx=0;entryDy=0;" edge="1" parent="WIyWlLk6GJQsqaUBKTNV-1" source="cyc-n1ejTyVXK12s6wC7-9">
          <mxGeometry relative="1" as="geometry">
            <mxPoint x="770" y="700" as="targetPoint" />
            <Array as="points">
              <mxPoint x="250" y="840" />
              <mxPoint x="250" y="680" />
              <mxPoint x="770" y="680" />
            </Array>
          </mxGeometry>
        </mxCell>
        <mxCell id="cyc-n1ejTyVXK12s6wC7-9" value="Display this number on a bar chart" style="rounded=0;whiteSpace=wrap;html=1;" vertex="1" parent="WIyWlLk6GJQsqaUBKTNV-1">
          <mxGeometry x="100" y="810" width="120" height="60" as="geometry" />
        </mxCell>
        <mxCell id="cyc-n1ejTyVXK12s6wC7-24" style="edgeStyle=orthogonalEdgeStyle;rounded=0;orthogonalLoop=1;jettySize=auto;html=1;exitX=1;exitY=0.5;exitDx=0;exitDy=0;entryX=0.5;entryY=1;entryDx=0;entryDy=0;" edge="1" parent="WIyWlLk6GJQsqaUBKTNV-1" source="cyc-n1ejTyVXK12s6wC7-12">
          <mxGeometry relative="1" as="geometry">
            <mxPoint x="770" y="760" as="targetPoint" />
          </mxGeometry>
        </mxCell>
        <mxCell id="cyc-n1ejTyVXK12s6wC7-44" style="edgeStyle=orthogonalEdgeStyle;rounded=0;orthogonalLoop=1;jettySize=auto;html=1;exitX=0;exitY=0.5;exitDx=0;exitDy=0;entryX=0;entryY=0.5;entryDx=0;entryDy=0;" edge="1" parent="WIyWlLk6GJQsqaUBKTNV-1" source="cyc-n1ejTyVXK12s6wC7-12" target="cyc-n1ejTyVXK12s6wC7-33">
          <mxGeometry relative="1" as="geometry" />
        </mxCell>
        <mxCell id="cyc-n1ejTyVXK12s6wC7-12" value="Display a bar chart related to number of wins" style="rounded=0;whiteSpace=wrap;html=1;" vertex="1" parent="WIyWlLk6GJQsqaUBKTNV-1">
          <mxGeometry x="330" y="810" width="120" height="60" as="geometry" />
        </mxCell>
        <mxCell id="cyc-n1ejTyVXK12s6wC7-25" style="edgeStyle=orthogonalEdgeStyle;rounded=0;orthogonalLoop=1;jettySize=auto;html=1;exitX=1;exitY=0.5;exitDx=0;exitDy=0;" edge="1" parent="WIyWlLk6GJQsqaUBKTNV-1" source="cyc-n1ejTyVXK12s6wC7-13">
          <mxGeometry relative="1" as="geometry">
            <mxPoint x="770" y="760" as="targetPoint" />
          </mxGeometry>
        </mxCell>
        <mxCell id="cyc-n1ejTyVXK12s6wC7-45" style="edgeStyle=orthogonalEdgeStyle;rounded=0;orthogonalLoop=1;jettySize=auto;html=1;exitX=0;exitY=0.5;exitDx=0;exitDy=0;entryX=0;entryY=0.5;entryDx=0;entryDy=0;" edge="1" parent="WIyWlLk6GJQsqaUBKTNV-1" source="cyc-n1ejTyVXK12s6wC7-13" target="cyc-n1ejTyVXK12s6wC7-33">
          <mxGeometry relative="1" as="geometry" />
        </mxCell>
        <mxCell id="cyc-n1ejTyVXK12s6wC7-13" value="Display a bar chart related to number of championships" style="rounded=0;whiteSpace=wrap;html=1;" vertex="1" parent="WIyWlLk6GJQsqaUBKTNV-1">
          <mxGeometry x="330" y="920" width="120" height="60" as="geometry" />
        </mxCell>
        <mxCell id="cyc-n1ejTyVXK12s6wC7-26" style="edgeStyle=orthogonalEdgeStyle;rounded=0;orthogonalLoop=1;jettySize=auto;html=1;exitX=1;exitY=0.5;exitDx=0;exitDy=0;" edge="1" parent="WIyWlLk6GJQsqaUBKTNV-1" source="cyc-n1ejTyVXK12s6wC7-14">
          <mxGeometry relative="1" as="geometry">
            <mxPoint x="770" y="760" as="targetPoint" />
          </mxGeometry>
        </mxCell>
        <mxCell id="cyc-n1ejTyVXK12s6wC7-46" style="edgeStyle=orthogonalEdgeStyle;rounded=0;orthogonalLoop=1;jettySize=auto;html=1;exitX=0;exitY=0.5;exitDx=0;exitDy=0;entryX=0;entryY=0.5;entryDx=0;entryDy=0;" edge="1" parent="WIyWlLk6GJQsqaUBKTNV-1" source="cyc-n1ejTyVXK12s6wC7-14" target="cyc-n1ejTyVXK12s6wC7-33">
          <mxGeometry relative="1" as="geometry" />
        </mxCell>
        <mxCell id="cyc-n1ejTyVXK12s6wC7-14" value="Display a bar chart over the number of points scored" style="rounded=0;whiteSpace=wrap;html=1;" vertex="1" parent="WIyWlLk6GJQsqaUBKTNV-1">
          <mxGeometry x="330" y="1020" width="120" height="60" as="geometry" />
        </mxCell>
        <mxCell id="cyc-n1ejTyVXK12s6wC7-27" style="edgeStyle=orthogonalEdgeStyle;rounded=0;orthogonalLoop=1;jettySize=auto;html=1;exitX=1;exitY=0.5;exitDx=0;exitDy=0;" edge="1" parent="WIyWlLk6GJQsqaUBKTNV-1" source="cyc-n1ejTyVXK12s6wC7-15">
          <mxGeometry relative="1" as="geometry">
            <mxPoint x="770" y="760" as="targetPoint" />
          </mxGeometry>
        </mxCell>
        <mxCell id="cyc-n1ejTyVXK12s6wC7-48" style="edgeStyle=orthogonalEdgeStyle;rounded=0;orthogonalLoop=1;jettySize=auto;html=1;exitX=0;exitY=0.5;exitDx=0;exitDy=0;entryX=0;entryY=0.5;entryDx=0;entryDy=0;" edge="1" parent="WIyWlLk6GJQsqaUBKTNV-1" source="cyc-n1ejTyVXK12s6wC7-15" target="cyc-n1ejTyVXK12s6wC7-33">
          <mxGeometry relative="1" as="geometry" />
        </mxCell>
        <mxCell id="cyc-n1ejTyVXK12s6wC7-15" value="Display a bar chart on the number of race starts" style="rounded=0;whiteSpace=wrap;html=1;" vertex="1" parent="WIyWlLk6GJQsqaUBKTNV-1">
          <mxGeometry x="330" y="1100" width="120" height="60" as="geometry" />
        </mxCell>
        <mxCell id="cyc-n1ejTyVXK12s6wC7-35" value="" style="edgeStyle=orthogonalEdgeStyle;rounded=0;orthogonalLoop=1;jettySize=auto;html=1;exitX=0.5;exitY=0;exitDx=0;exitDy=0;entryX=0.5;entryY=1;entryDx=0;entryDy=0;" edge="1" parent="WIyWlLk6GJQsqaUBKTNV-1" source="cyc-n1ejTyVXK12s6wC7-33" target="cyc-n1ejTyVXK12s6wC7-34">
          <mxGeometry relative="1" as="geometry" />
        </mxCell>
        <mxCell id="cyc-n1ejTyVXK12s6wC7-33" value="User resets or selects a filter" style="rhombus;whiteSpace=wrap;html=1;" vertex="1" parent="WIyWlLk6GJQsqaUBKTNV-1">
          <mxGeometry x="730" y="690" width="80" height="80" as="geometry" />
        </mxCell>
        <mxCell id="cyc-n1ejTyVXK12s6wC7-36" style="edgeStyle=orthogonalEdgeStyle;rounded=0;orthogonalLoop=1;jettySize=auto;html=1;" edge="1" parent="WIyWlLk6GJQsqaUBKTNV-1" source="cyc-n1ejTyVXK12s6wC7-34" target="cyc-n1ejTyVXK12s6wC7-0">
          <mxGeometry relative="1" as="geometry" />
        </mxCell>
        <mxCell id="cyc-n1ejTyVXK12s6wC7-34" value="All Filters and lists reset" style="rounded=0;whiteSpace=wrap;html=1;" vertex="1" parent="WIyWlLk6GJQsqaUBKTNV-1">
          <mxGeometry x="280" y="80" width="120" height="60" as="geometry" />
        </mxCell>
      </root>
    </mxGraphModel>
  </diagram>
</mxfile>
